# xmcd
#
# Track frame offsets: 
#        150
#        15266
#        27629
#        44409
#        58630
#        78315
#        99379
#        122881
#        135873
#        148392
#
# Disc length: 2205 seconds
#
# Revision: 0
# Processed by: cddbd v1.5.2PL0 Copyright (c) Steve Scherf et al.
# Submitted via: ExactAudioCopy v1.0b4
#
DISCID=82089b0a
DTITLE=Cara Being Blue - Grit
DYEAR=2019
DGENRE=Blues
TTITLE0=Grit
TTITLE1=Crocodile Man
TTITLE2=Leave Me In Flames
TTITLE3=One Day
TTITLE4=You Don't Wanna
TTITLE5=Skippin' Stone
TTITLE6=Old Feelin'
TTITLE7=Kind Kinda Man
TTITLE8=My Doggie
TTITLE9=Some Fun
EXTD=
EXTT0=
EXTT1=
EXTT2=
EXTT3=
EXTT4=
EXTT5=
EXTT6=
EXTT7=
EXTT8=
EXTT9=
PLAYORDER=
